<?xml version="1.0" encoding="UTF-8"?>
<svg xmlns="http://www.w3.org/2000/svg" version="1.1" xmlns:xlink="http://www.w3.org/1999/xlink" viewBox="0 0 3162.2 649.1">
  <defs>
    <style>
      .cls-1 {
        fill: url(#linear-gradient-2);
      }

      .cls-2 {
        fill: url(#linear-gradient-4);
      }

      .cls-3 {
        fill: url(#linear-gradient-3);
      }

      .cls-4 {
        fill: url(#linear-gradient-5);
      }

      .cls-5 {
        fill: url(#linear-gradient-7);
      }

      .cls-6 {
        fill: url(#linear-gradient-6);
      }

      .cls-7 {
        fill: url(#linear-gradient);
      }
    </style>
    <linearGradient id="linear-gradient" x1="1995.8" y1="-5.9" x2="1996.8" y2="-5.9" gradientTransform="translate(-105935.2 699.9) scale(53.3 71.7)" gradientUnits="userSpaceOnUse">
      <stop offset="0" stop-color="#147d6c"/>
      <stop offset="1" stop-color="#1effff"/>
    </linearGradient>
    <linearGradient id="linear-gradient-2" x1="2025.4" y1="-1.9" x2="2026.4" y2="-1.9" gradientTransform="translate(-482370.1 796.9) scale(238.3 199.4)" gradientUnits="userSpaceOnUse">
      <stop offset="0" stop-color="#147d6c"/>
      <stop offset="1" stop-color="#1effff"/>
    </linearGradient>
    <linearGradient id="linear-gradient-3" x1="2025" y1="-3.3" x2="2026" y2="-3.3" gradientTransform="translate(-460270.8 860.7) scale(227.5 119)" gradientUnits="userSpaceOnUse">
      <stop offset="0" stop-color="#147d6c"/>
      <stop offset="1" stop-color="#1effff"/>
    </linearGradient>
    <linearGradient id="linear-gradient-4" x1="2022.6" y1="-1.2" x2="2023.6" y2="-1.2" gradientTransform="translate(-358457.2 572.3) scale(177.4 255.9)" gradientUnits="userSpaceOnUse">
      <stop offset="0" stop-color="#147d6c"/>
      <stop offset="1" stop-color="#1effff"/>
    </linearGradient>
    <linearGradient id="linear-gradient-5" x1="2024.8" y1="-3.3" x2="2025.8" y2="-3.3" gradientTransform="translate(-448167.1 851.8) scale(221.4 114.2)" gradientUnits="userSpaceOnUse">
      <stop offset="0" stop-color="#147d6c"/>
      <stop offset="1" stop-color="#1effff"/>
    </linearGradient>
    <linearGradient id="linear-gradient-6" x1="2023" y1="-1.9" x2="2024" y2="-1.9" gradientTransform="translate(-375075.3 767.3) scale(185.5 187.6)" gradientUnits="userSpaceOnUse">
      <stop offset="0" stop-color="#147d6c"/>
      <stop offset="1" stop-color="#1effff"/>
    </linearGradient>
    <linearGradient id="linear-gradient-7" x1="1997.6" y1="-5.5" x2="1998.6" y2="-5.5" gradientTransform="translate(-111445.1 676.6) scale(55.9 73.6)" gradientUnits="userSpaceOnUse">
      <stop offset="0" stop-color="#147d6c"/>
      <stop offset="1" stop-color="#1effff"/>
    </linearGradient>
  </defs>
  <!-- Generator: Adobe Illustrator 28.7.1, SVG Export Plug-In . SVG Version: 1.2.0 Build 142)  -->
  <g>
    <g id="Layer_1">
      <g id="Layer_1-2" data-name="Layer_1">
        <g>
          <g id="SvgjsG1047">
            <g>
              <path class="cls-7" d="M492.1,309.5c16.4-5,32.2-8.5,46.9-10.9-.6-26.4-4.2-48.3-6.7-60.8-10.5,3.9-27.4,10.9-46.6,21.4,3.2,12.4,5.4,25.4,6.1,38.7.2,3.9.3,7.8.3,11.6h0Z"/>
              <path class="cls-1" d="M553.9,411.8c15.8-31.9,24.5-63.2,28.7-84.5-57.8,2.5-182.8-10.6-225.9,159.1-2.9,11.4-8.2,27.4-12.5,39.6,13.3-1.8,141.5,23.6,209.7-114.2Z"/>
              <path class="cls-3" d="M580.1,408.4c-2,4.5-4.1,9-6.4,13.5-25.3,49.7-59.8,84.4-103,103.7,123.6,14.3,227.5-62.1,227.5-62.1,0,0-48.5-36.6-118.1-55.1h0Z"/>
              <path class="cls-2" d="M372.3,385.6c22.7-27.3,52.3-48.9,88.6-64.6,2.9-1.3,5.8-2.5,8.7-3.6.3-6,.4-12,0-18.1-4.7-80.4-67.7-148.3-89.4-169.5-13.8,13.8-44.5,47.3-65.5,91.2-16.5,34.6-23.8,68-21.8,100,32.9,16.1,59.4,37.7,79.4,64.6h0Z"/>
              <path class="cls-4" d="M184,416.1c-.5-1-1-1.9-1.4-2.9-61.4,19.6-58.2,17.6-101.4,50.2,0,0,100.5,73.9,221.4,62.8-50-18.8-89.8-55.8-118.5-110.2h-.1Z"/>
              <path class="cls-6" d="M173.7,322.9c4.6,20.9,13.5,51.7,29.9,82.9,28.9,54.7,69.8,89.9,121.8,104.7,1.2-3.3,8.2-59.3,33.8-102-41.1-74.6-140-84.5-185.5-85.5h0Z"/>
              <path class="cls-5" d="M276.8,260.5c-20.3-11.3-38.3-18.7-49.2-22.8-2.5,12.3-5.9,33.6-6.7,59.2,15.9,3.3,32.8,7.9,49.7,14.3,0-16.7,2-33.6,6.2-50.8h0Z"/>
            </g>
          </g>
          <g id="SvgjsG1048">
            <path d="M1019.5,402.3c-91.9,0-159.8-62.5-159.8-160.7s67.9-160.5,159.8-160.5,125.4,35.7,147.7,94.9l-60.6,22.1c-13.8-36.3-46.9-57.3-87.2-57.3s-95.2,37.6-95.2,100.8,41.3,101,95.2,101,73.3-21.2,87.2-57.5l60.6,22.1c-22.3,59.3-78.1,95.2-147.7,95.2h0ZM1401.6,142.5h-115.9v70.9h102.7v56.4h-102.7v70.7h115.9v57.3h-181.2V85.4h181.2v57.1h0ZM1533.3,340.6h98v57.3h-162.8V85.4h64.9v255.2h0ZM1745.7,340.6h98v57.3h-162.8V85.4h64.9v255.2h0ZM2074.4,142.5h-115.9v70.9h102.7v56.4h-102.7v70.7h115.9v57.3h-181.2V85.4h181.2v57.1h0ZM2309,232.9c35.3,9.7,58.8,32.9,58.8,77.4s-32,87.6-98,87.6h-128.7V85.4h101.2c67.5,0,102.9,32.4,102.9,85.6s-11.9,50-36.3,61.9h.1ZM2243.1,139.3h-39.4v73.5h42.2c27.7,0,39.8-16.4,39.8-37.6s-13.6-35.9-42.6-35.9h0ZM2257.8,342.3c35,0,47.1-18.8,47.1-39.1s-11.9-40.4-48.4-40.4h-52.8v79.6h54.1,0ZM2590.6,397.9l-81.3-137.5h-18.8v137.5h-64.9V85.4h113.3c70.7,0,100.6,41.7,100.6,93.4s-23.8,69.2-66.2,78.3l94.1,140.8h-76.8ZM2490.5,139.3v74.6h38.3c34.6,0,48.7-14.7,48.7-37.2s-14.1-37.4-48.7-37.4h-38.3ZM2715,397.9V85.4h64.9v312.5h-64.9ZM2964.3,402.3c-67,0-119.4-32.2-128.9-90.8l67-15.4c4.3,35,30.1,53.2,64.4,53.2s47.4-11.7,47.1-38.1c-.2-29.4-34.8-38.7-72.9-50.4-45.8-14.3-94.9-31.1-94.9-88.7s47.6-91,110.3-91,110.3,22.3,122.8,82.2l-62.7,15.6c-5.8-31.1-26.8-44.8-56.2-44.8s-48.4,10.8-48.4,36.5,30.7,32,66.2,42.6c47.1,14.3,102.9,32.4,102.9,94.7s-55.6,94.3-116.8,94.3h0Z"/>
          </g>
          <g id="SvgjsG1049">
            <path d="M958.7,557.9c-7.2,6.2-16.3,9.5-26.4,9.5-20.4,0-40.2-16.6-40.2-40.4s19.8-40.4,40.2-40.4,19,3.4,26,9.3l-5.7,6.5c-5.5-4.4-12.6-7-19.6-7-16.1,0-31.2,13-31.2,31.5s15.2,31.5,31.2,31.5,14.4-2.7,19.9-7.2l5.8,6.5v.2ZM1017,487.7h9.3v50.1c0,19.3-12.6,30.2-28.5,30.2s-28.5-10.9-28.5-30.2v-50.1h9.3v50.1c0,14.7,8.8,21.3,19.2,21.3s19.2-6.6,19.2-21.3v-50.1h0ZM1049.1,557.5h35.2v8.8h-44.6v-78.6h9.3v69.8h0ZM1146.4,487.7v8.8h-21.8v69.8h-9.3v-69.8h-21.9v-8.8h53ZM1166.9,487.7v78.6h-9.3v-78.6h9.3ZM1243.9,487.7h9.9l-35.1,78.6h-7.7l-35-78.6h9.9l29.1,66.3,29.1-66.3h-.2ZM1326.3,566.3l-8.1-18.5h-42l-8.1,18.5h-9.9l35-78.6h7.7l35.1,78.6h-9.9.2ZM1279.7,539.9h35l-17.5-40-17.5,40ZM1395.9,487.7v8.8h-21.8v69.8h-9.3v-69.8h-21.9v-8.8h53ZM1416.4,487.7v78.6h-9.3v-78.6h9.3ZM1484.7,487.7h9.3v78.6h-7.2l-47.6-61.5v61.5h-9.3v-78.6h7.2l47.6,61.6v-61.6h0ZM1581.9,526.8c1.7,25.1-15.5,40.6-35.9,40.6s-40.2-16.6-40.2-40.4,19.6-40.4,40.2-40.4,18.9,3.4,25.9,9.3l-5.7,6.5c-5.5-4.4-12.6-7-19.6-7-16.1,0-31.1,13-31.1,31.5s14.6,31.5,30.5,31.5,25-7.5,27.2-23.7h-22.9v-8.1h31.7v.2ZM1691,566.3l-8.1-18.5h-42l-8.1,18.5h-9.9l35-78.6h7.7l35.1,78.6h-9.9.2ZM1644.4,539.9h35l-17.5-40-17.5,40ZM1719.2,487.7v78.6h-9.3v-78.6h9.3ZM1812.7,496.1h-36.8v26.6h30.4v8h-30.4v35.6h-9.5v-78.6h46.4v8.4h0ZM1859.6,486.6c20.4,0,40.2,16.6,40.2,40.4s-19.8,40.4-40.2,40.4-40.2-16.6-40.2-40.4,19.6-40.4,40.2-40.4ZM1859.6,558.6c15.4,0,30.5-13,30.5-31.5s-15.2-31.5-30.5-31.5-30.5,13-30.5,31.5,15,31.5,30.5,31.5ZM1969.3,566.3h-10.1l-19.9-28.3h-18.4v28.3h-9.3v-78.6h25.6c17.6,0,27.8,10.8,27.8,25.4s-6.1,20-16.8,23.3l21.1,29.9h0ZM1920.9,496.5v33.2h16.1c11.3,0,18.7-5.8,18.7-16.6s-7.4-16.6-18.7-16.6h-16.1ZM2077.6,487.7l-29.3,42.3v36.3h-9.3v-36.3l-29.3-42.3h10.7l23.2,33.8,23.3-33.8h10.7ZM2126.2,486.6c20.4,0,40.2,16.6,40.2,40.4s-19.8,40.4-40.2,40.4-40.2-16.6-40.2-40.4,19.6-40.4,40.2-40.4ZM2126.2,558.6c15.4,0,30.5-13,30.5-31.5s-15.2-31.5-30.5-31.5-30.5,13-30.5,31.5,15,31.5,30.5,31.5ZM2225.9,487.7h9.3v50.1c0,19.3-12.6,30.2-28.5,30.2s-28.5-10.9-28.5-30.2v-50.1h9.3v50.1c0,14.7,8.8,21.3,19.2,21.3s19.2-6.6,19.2-21.3v-50.1h0ZM2306.4,566.3h-10.1l-19.9-28.3h-18.4v28.3h-9.3v-78.6h25.6c17.6,0,27.8,10.8,27.8,25.4s-6.1,20-16.8,23.3l21.1,29.9h0ZM2258,496.5v33.2h16.1c11.3,0,18.7-5.8,18.7-16.6s-7.4-16.6-18.7-16.6h-16.1ZM2401.6,566.3l-30.4-36.7-11.4,12.5v24.2h-9.5v-78.6h9.5v42.1l38.3-42.1h11.7l-32.7,35.6,35.6,43h-11.1ZM2476.9,487.7h9.3v78.6h-7.2l-47.6-61.5v61.5h-9.3v-78.6h7.2l47.6,61.6v-61.6h0ZM2538.2,486.6c20.4,0,40.2,16.6,40.2,40.4s-19.8,40.4-40.2,40.4-40.2-16.6-40.2-40.4,19.6-40.4,40.2-40.4ZM2538.2,558.6c15.4,0,30.5-13,30.5-31.5s-15.2-31.5-30.5-31.5-30.5,13-30.5,31.5,15,31.5,30.5,31.5ZM2693,487.7l-25.4,78.6h-6.1l-21.7-61.4-21.6,61.4h-6.1l-25.5-78.6h9.7l19.2,59.4,21-59.4h6.5l21.1,59.4,19.2-59.4h9.7ZM2712.4,557.5h35.2v8.8h-44.6v-78.6h9.3v69.8h.1ZM2768.2,557.5h37.4v8.8h-46.7v-78.6h45.7v8.8h-36.4v26h28.3v8.5h-28.3v26.5h0ZM2840.7,487.7c22.9,0,39.7,17.4,39.7,39.3s-16.8,39.3-39.7,39.3h-23.3v-78.6h23.3ZM2840.6,557.4c18.7,0,30.3-13.6,30.3-30.4s-11.6-30.4-30.3-30.4h-13.9v60.8h13.9ZM2966.1,526.8c1.7,25.1-15.5,40.6-35.9,40.6s-40.2-16.6-40.2-40.4,19.6-40.4,40.2-40.4,18.9,3.4,25.9,9.3l-5.7,6.5c-5.5-4.4-12.6-7-19.6-7-16.1,0-31.1,13-31.1,31.5s14.6,31.5,30.5,31.5,25-7.5,27.2-23.7h-22.9v-8.1h31.7v.2ZM2987.3,557.5h37.4v8.8h-46.7v-78.6h45.7v8.8h-36.4v26h28.3v8.5h-28.3v26.5h0Z"/>
          </g>
        </g>
      </g>
    </g>
  </g>
</svg>