<?xml version="1.0" encoding="UTF-8"?>
<svg version="1.1" xmlns="http://www.w3.org/2000/svg" width="196" height="196">
<path d="M0 0 C64.68 0 129.36 0 196 0 C196 64.68 196 129.36 196 196 C131.32 196 66.64 196 0 196 C0 131.32 0 66.64 0 0 Z " fill="#112D4E" transform="translate(0,0)"/>
<path d="M0 0 C-3.22341167 16.32912492 -9.51996238 31.70690534 -23.546875 41.83984375 C-32.84934551 47.60455654 -40.90311349 50.18137848 -51.8125 50.0625 C-52.60076172 50.05798828 -53.38902344 50.05347656 -54.20117188 50.04882812 C-56.13414761 50.03711312 -58.06708393 50.01917998 -60 50 C-59.66226563 48.9378125 -59.32453125 47.875625 -58.9765625 46.78125 C-58.52591703 45.35420602 -58.07540326 43.92712044 -57.625 42.5 C-57.40328125 41.80390625 -57.1815625 41.1078125 -56.953125 40.390625 C-55.84865487 36.88230813 -54.84392298 33.39950985 -54.02734375 29.8125 C-51.19957053 19.31855831 -43.63047823 11.09314561 -34.51953125 5.46875 C-23.2255806 -0.55469035 -12.4913248 -0.24255 0 0 Z " fill="#18BCB4" transform="translate(147,98)"/>
<path d="M0 0 C5.30164683 0.63285424 7.50763647 4.74545783 10.6171875 8.69140625 C19.81209297 21.13487856 24.65223118 32.37060835 24 48 C23.10539062 48.40089844 22.21078125 48.80179688 21.2890625 49.21484375 C12.89901423 53.11213398 6.54389571 57.35055759 0 64 C-4.41240045 60.23107461 -8.80848724 56.44814371 -13.1328125 52.578125 C-15.10479922 50.83534418 -15.10479922 50.83534418 -18 49.125 C-20 47 -20 47 -20.5625 43.0625 C-19.55083611 26.76938687 -10.65667495 11.84074995 0 0 Z " fill="#18BCB4" transform="translate(94,48)"/>
<path d="M0 0 C16.58276738 1.03056746 28.77435492 5.86219536 40.1171875 18.22265625 C41.26953125 20.15234375 41.26953125 20.15234375 41.10546875 22.01171875 C40.82960937 22.718125 40.55375 23.42453125 40.26953125 24.15234375 C39.89957031 25.10367188 39.52960938 26.055 39.1484375 27.03515625 C38.71402344 28.10507813 38.27960938 29.175 37.83203125 30.27734375 C35.65222035 35.85287163 34.1637263 41.23997949 33.26953125 47.15234375 C23.70778142 46.03237305 15.89345055 39.69555979 9.40234375 32.85546875 C2.2539087 23.7955474 -1.88598392 13.24957732 -4.73046875 2.15234375 C-2.73046875 0.15234375 -2.73046875 0.15234375 0 0 Z " fill="#19C0B9" transform="translate(48.73046875,96.84765625)"/>
<path d="M0 0 C10.68681639 0.72864657 20.1664181 6.31289307 29 12 C27.5014417 16.33443762 24.87132718 17.46664616 20.875 19.4375 C8.21860056 25.56481761 -6.82890178 31.36790268 -21 28 C-21 26 -21 26 -18.6875 23.4375 C-16 21 -16 21 -13 20 C-12.28696884 18.6908748 -11.62712267 17.35238285 -11 16 C-9.90433712 14.54001572 -8.77692644 13.10351438 -7.625 11.6875 C-4.65578788 7.94344129 -2.24167604 4.21435096 0 0 Z " fill="#19C2BB" transform="translate(146,119)"/>
<path d="M0 0 C1.703125 2.08984375 1.703125 2.08984375 3.25 4.9375 C9.24298418 15.00778443 17.68552837 23.22850946 29 27 C29 27.66 29 28.32 29 29 C11.29310506 30.01021905 -7.57039131 25.77874384 -22 15 C-23.01954577 14.0199355 -24.0254942 13.02486021 -25 12 C-19.65398645 5.50841212 -8.65302651 -1.27645577 0 0 Z " fill="#18AFA7" transform="translate(46,120)"/>
<path d="M0 0 C1.41791408 0.45445964 2.83428046 0.91374944 4.25 1.375 C5.43335938 1.75785156 5.43335938 1.75785156 6.640625 2.1484375 C9 3 9 3 13 5 C12.67 9.29 12.34 13.58 12 18 C7.428721 17.45144652 3.32564205 16.58255197 -1 15 C-1.18451025 4.44191344 -1.18451025 4.44191344 0 0 Z " fill="#17A79D" transform="translate(56,75)"/>
<path d="M0 0 C0.33 5.28 0.66 10.56 1 16 C-2.96 16.66 -6.92 17.32 -11 18 C-11.33 13.71 -11.66 9.42 -12 5 C-3.375 0 -3.375 0 0 0 Z " fill="#19C3BF" transform="translate(135,75)"/>
<path d="M0 0 C5 1 5 1 7 2 C6.67 6.29 6.34 10.58 6 15 C4.35 14.67 2.7 14.34 1 14 C0.67 9.38 0.34 4.76 0 0 Z " fill="#1ACCC6" transform="translate(62,78)"/>
<path d="M0 0 C1.41778293 2.83556587 0.86257622 4.9908706 0.5625 8.125 C0.46066406 9.22070312 0.35882813 10.31640625 0.25390625 11.4453125 C0.17011719 12.28835937 0.08632812 13.13140625 0 14 C0.66 14.33 1.32 14.66 2 15 C0.02 15.33 -1.96 15.66 -4 16 C-4.33 11.71 -4.66 7.42 -5 3 C-3.35 2.01 -1.7 1.02 0 0 Z " fill="#169D92" transform="translate(128,77)"/>
<path d="M0 0 C2.18994248 3.28491373 2.35277339 4.83095639 2.625 8.6875 C2.69976562 9.68136719 2.77453125 10.67523438 2.8515625 11.69921875 C2.92503906 12.83810547 2.92503906 12.83810547 3 14 C1.68 14 0.36 14 -1 14 C-0.67 9.38 -0.34 4.76 0 0 Z " fill="#1CE5E4" transform="translate(133,76)"/>
<path d="M0 0 C0.99 0 1.98 0 3 0 C2.67 4.29 2.34 8.58 2 13 C1.34 13 0.68 13 0 13 C-0.19397476 11.02145742 -0.38001321 9.0421352 -0.5625 7.0625 C-0.66691406 5.96035156 -0.77132812 4.85820313 -0.87890625 3.72265625 C-0.91886719 2.82417969 -0.95882812 1.92570312 -1 1 C-0.67 0.67 -0.34 0.34 0 0 Z " fill="#1BE2E0" transform="translate(66,80)"/>
<path d="M0 0 C0 0.66 0 1.32 0 2 C3.3 2.33 6.6 2.66 10 3 C10 3.33 10 3.66 10 4 C4.72 4 -0.56 4 -6 4 C-6 3.34 -6 2.68 -6 2 C-2.25 0 -2.25 0 0 0 Z " fill="#13696B" transform="translate(125,145)"/>
<path d="M0 0 C0.33 0 0.66 0 1 0 C1.66 5.28 2.32 10.56 3 16 C1.68 15.67 0.36 15.34 -1 15 C-1.18451025 4.44191344 -1.18451025 4.44191344 0 0 Z " fill="#147972" transform="translate(56,75)"/>
<path d="M0 0 C5.75 1.75 5.75 1.75 8 4 C4.7 4 1.4 4 -2 4 C-1.01 3.34 -0.02 2.68 1 2 C0.67 1.34 0.34 0.68 0 0 Z " fill="#1CE9E8" transform="translate(66,144)"/>
</svg>
